<?xml version="1.0" encoding="iso-8859-1"?>
<!-- Generator: Adobe Illustrator 16.0.0, SVG Export Plug-In . SVG Version: 6.00 Build 0)  -->
<!DOCTYPE svg PUBLIC "-//W3C//DTD SVG 1.1//EN" "http://www.w3.org/Graphics/SVG/1.1/DTD/svg11.dtd">
<svg version="1.1" id="Capa_1" xmlns="http://www.w3.org/2000/svg" xmlns:xlink="http://www.w3.org/1999/xlink" x="0px" y="0px"
	 width="56px" height="96px" viewBox="0 0 56 96" style="enable-background:new 0 0 56 96;" xml:space="preserve">
<path d="M29.015,0.803c-0.133-1.071-1.896-1.071-2.029,0C22.57,36.344,0,43.666,0,68.367C0,83.627,12.816,96,28,96
	s28-12.373,28-27.633C56,43.666,33.43,36.344,29.015,0.803z M24.751,40.09c-0.297,1.095-0.615,2.223-0.942,3.386
	c-2.007,7.123-4.281,15.195-4.281,24.537c0,5.055-2.988,6.854-5.784,6.854c-3.189,0-5.782-2.616-5.782-5.831
	c0-11.034,5.315-18.243,10.005-24.604c1.469-1.991,2.855-3.873,3.983-5.749c0.516-0.856,1.903-0.82,2.533,0.029
	C24.781,39.116,24.879,39.619,24.751,40.09z"/>
<g>
</g>
<g>
</g>
<g>
</g>
<g>
</g>
<g>
</g>
<g>
</g>
<g>
</g>
<g>
</g>
<g>
</g>
<g>
</g>
<g>
</g>
<g>
</g>
<g>
</g>
<g>
</g>
<g>
</g>
</svg>
