<?xml version="1.0"?><svg width="266.66666666666663" height="266.66666666666663" xmlns="http://www.w3.org/2000/svg" xmlns:xlink="http://www.w3.org/1999/xlink">
 <title>honeycomb</title>
 <defs>
  <linearGradient id="linearGradient856">
   <stop stop-color="#ffffff" stop-opacity="0.5" offset="0" id="stop857"/>
   <stop stop-color="#ffffff" stop-opacity="0.25" offset="1" id="stop858"/>
  </linearGradient>
  <linearGradient y2="0.70313" y1="0.50781" xlink:href="#linearGradient856" x2="0.20732" x1="-1.0122" id="linearGradient859"/>
 </defs>
 <g>
  <title>Layer 1</title>
  <g id="svg_39">
   <path fill="#ffc62a" fill-rule="evenodd" stroke="#ff9500" stroke-width="2.5" id="path852" d="m159.401306,100.940994l-13.66037,20.312088l-25.32782,0.031128l-11.667297,-20.281036l13.660492,-20.312134l25.327637,-0.031006l11.667358,20.28096l0,0z"/>
   <path fill="url(#linearGradient859)" fill-rule="evenodd" stroke-width="1.0000000pt" id="path855" d="m123.546906,81.49588c0,0 -13.441284,18.541809 -12.727539,19.292572c0.713791,0.750793 9.667725,17.733841 11.113953,18.952484c0.571014,0.600616 22.065216,1.120087 23.518433,-0.074707c-17.357025,-7.66629 -34.700241,-20.159561 -21.904846,-38.170349l0,0z"/>
   <path id="svg_2" fill="#ffc62a" fill-rule="evenodd" stroke="#ff9500" stroke-width="2.5" d="m196.93512,121.876587l-13.6604,20.312073l-25.327789,0.031158l-11.667297,-20.281036l13.660492,-20.312134l25.327606,-0.031021l11.667389,20.28096l0,0z"/>
   <path id="svg_3" fill="url(#linearGradient859)" fill-rule="evenodd" stroke-width="1.0000000pt" d="m160.877106,103.350006c0,0 -13.441284,18.541809 -12.727539,19.292572c0.713776,0.750793 9.667694,17.733826 11.113953,18.952484c0.571014,0.600616 22.065216,1.120087 23.518433,-0.074707c-17.357025,-7.66629 -34.700256,-20.159576 -21.904846,-38.170349l0,0z"/>
   <path id="svg_4" fill="#ffc62a" fill-rule="evenodd" stroke="#ff9500" stroke-width="2.5" d="m157.127716,142.11853l-13.660461,20.312103l-25.327942,0.031036l-11.667145,-20.280914l13.660461,-20.312134l25.327576,-0.031189l11.667511,20.281097l0,0l0,0z"/>
   <path id="svg_5" fill="url(#linearGradient859)" fill-rule="evenodd" stroke-width="1.0000000pt" d="m120.285217,124.138885c0,0 -13.441299,18.541809 -12.727539,19.292572c0.71376,0.750793 9.667694,17.733856 11.113922,18.952484c0.571045,0.600647 22.065216,1.120117 23.518433,-0.074707c-17.357025,-7.66626 -34.700241,-20.159546 -21.904816,-38.170349l0,0z"/>
   <path id="svg_6" fill="#ffc62a" fill-rule="evenodd" stroke="#ff9500" stroke-width="2.5" d="m199.288177,80.480972l-13.660278,20.311981l-25.327942,0.03125l-11.667053,-20.281204l13.660248,-20.311966l25.327637,-0.031021l11.667389,20.28096l0,0l0,0z"/>
   <path id="svg_7" fill="url(#linearGradient859)" fill-rule="evenodd" stroke-width="1.0000000pt" d="m162.641846,61.954376c0,0 -13.441284,18.541794 -12.727539,19.292557c0.713776,0.750793 9.667694,17.733841 11.113922,18.952484c0.571045,0.600632 22.065216,1.120102 23.518433,-0.074692c-17.357025,-7.666306 -34.700226,-20.159576 -21.904816,-38.170349l0,0z"/>
   <path id="svg_8" fill="#ffc62a" fill-rule="evenodd" stroke="#ff9500" stroke-width="2.5" d="m194.385925,163.272034l-13.6604,20.312073l-25.32782,0.031158l-11.667297,-20.281036l13.660492,-20.312134l25.327637,-0.031006l11.667389,20.280945l0,0z"/>
   <path id="svg_9" fill="url(#linearGradient859)" fill-rule="evenodd" stroke-width="1.0000000pt" d="m157.151337,144.380829c0,0 -13.441315,18.541779 -12.727539,19.292542c0.713776,0.750793 9.667694,17.733856 11.113922,18.952515c0.571014,0.600616 22.065216,1.120087 23.518433,-0.074738c-17.357025,-7.66626 -34.700256,-20.159546 -21.904816,-38.170319l0,0z"/>
   <path id="svg_10" fill="#ffc62a" fill-rule="evenodd" stroke="#ff9500" stroke-width="2.5" d="m154.382568,183.331573l-13.6604,20.312073l-25.327789,0.031128l-11.667313,-20.281036l13.660477,-20.312134l25.327637,-0.031006l11.667389,20.280975l0,0l0,0z"/>
   <path id="svg_11" fill="url(#linearGradient859)" fill-rule="evenodd" stroke-width="1.0000000pt" d="m117.349976,164.803864c0,0 -13.441299,18.541809 -12.727554,19.292572c0.713776,0.750793 9.667709,17.733826 11.113937,18.952484c0.571014,0.600616 22.065216,1.120087 23.518433,-0.074707c-17.357025,-7.66629 -34.700241,-20.159546 -21.904816,-38.170349l0,0z"/>
   <path id="svg_12" fill="#ffc62a" fill-rule="evenodd" stroke="#ff9500" stroke-width="2.5" d="m236.93866,101.269958l-13.6604,20.312073l-25.327789,0.031128l-11.667328,-20.281021l13.660492,-20.312134l25.327637,-0.031006l11.667389,20.28096l0,0z"/>
   <path id="svg_13" fill="url(#linearGradient859)" fill-rule="evenodd" stroke-width="1.0000000pt" d="m201.272675,82.013947c0,0 -13.441284,18.541809 -12.727539,19.292572c0.713776,0.750793 9.667694,17.733826 11.113953,18.952484c0.571014,0.600616 22.065216,1.120087 23.518402,-0.074707c-17.356995,-7.66629 -34.700226,-20.159561 -21.904816,-38.170349l0,0z"/>
   <path id="svg_14" fill="#ffc62a" fill-rule="evenodd" stroke="#ff9500" stroke-width="2.5" d="m233.604736,142.665405l-13.66037,20.312073l-25.32782,0.031128l-11.667267,-20.281036l13.660461,-20.312103l25.327637,-0.031036l11.667358,20.280975l0,0z"/>
   <path id="svg_15" fill="url(#linearGradient859)" fill-rule="evenodd" stroke-width="1.0000000pt" d="m196.958191,123.956604c0,0 -13.441315,18.541779 -12.727539,19.292542c0.713776,0.750793 9.667694,17.733856 11.113953,18.952484c0.571014,0.600647 22.065186,1.120117 23.518402,-0.074677c-17.357025,-7.66629 -34.700226,-20.159576 -21.904816,-38.170349l0,0z"/>
   <path id="svg_16" fill="#ffc62a" fill-rule="evenodd" stroke="#ff9500" stroke-width="2.5" d="m232.035828,183.878784l-13.66037,20.312073l-25.32782,0.031128l-11.667297,-20.281036l13.660461,-20.312103l25.327637,-0.031036l11.667389,20.280975l0,0z"/>
   <path id="svg_17" fill="url(#linearGradient859)" fill-rule="evenodd" stroke-width="1.0000000pt" d="m195.389435,165.169617c0,0 -13.441315,18.541809 -12.72757,19.292572c0.713776,0.750793 9.667725,17.733856 11.113953,18.952484c0.571045,0.600616 22.065216,1.120117 23.518433,-0.074707c-17.357025,-7.66629 -34.700256,-20.159546 -21.904816,-38.170349l0,0z"/>
   <path id="svg_18" fill="#ffc62a" fill-rule="evenodd" stroke="#ff9500" stroke-width="2.5" d="m117.121979,162.542725l-13.6604,20.312073l-25.327805,0.031158l-11.667297,-20.281036l13.660492,-20.312134l25.327621,-0.031006l11.667389,20.280945l0,0z"/>
   <path id="svg_19" fill="url(#linearGradient859)" fill-rule="evenodd" stroke-width="1.0000000pt" d="m80.277313,143.650391c0,0 -13.441284,18.541809 -12.727539,19.292603c0.713776,0.750763 9.667709,17.733826 11.113937,18.952454c0.57103,0.600616 22.065216,1.120117 23.518433,-0.074677c-17.35701,-7.66629 -34.700241,-20.159576 -21.904831,-38.17038l0,0z"/>
   <path id="svg_20" fill="#ffc62a" fill-rule="evenodd" stroke="#ff9500" stroke-width="2.5" d="m119.869171,121.147125l-13.66037,20.312073l-25.32782,0.031158l-11.667297,-20.281036l13.660492,-20.312134l25.327637,-0.031006l11.667358,20.280945l0,0z"/>
   <path id="svg_21" fill="url(#linearGradient859)" fill-rule="evenodd" stroke-width="1.0000000pt" d="m83.222839,102.438126c0,0 -13.441284,18.541824 -12.727539,19.292587c0.713776,0.750763 9.667694,17.733826 11.113937,18.952454c0.571014,0.600647 22.065216,1.120117 23.518417,-0.074677c-17.35701,-7.66629 -34.700226,-20.159576 -21.904816,-38.170364l0,0z"/>
   <path id="svg_22" fill="#ffc62a" fill-rule="evenodd" stroke="#ff9500" stroke-width="2.5" d="m121.828369,80.118011l-13.660385,20.312088l-25.32782,0.031128l-11.667297,-20.281021l13.660492,-20.312134l25.327637,-0.031021l11.667374,20.28096l0,0z"/>
   <path id="svg_23" fill="url(#linearGradient859)" fill-rule="evenodd" stroke-width="1.0000000pt" d="m84.983353,61.225296c0,0 -13.441284,18.541809 -12.727539,19.292572c0.713776,0.750778 9.667709,17.733826 11.113937,18.952484c0.571014,0.600632 22.065216,1.120087 23.518433,-0.074707c-17.35701,-7.66629 -34.700241,-20.159561 -21.904831,-38.170349l0,0z"/>
   <path fill="#ffc62a" fill-rule="evenodd" stroke="#ff9500" stroke-width="2.5" d="m161.587158,59.642532l-13.66037,20.312073l-25.32782,0.031143l-11.667297,-20.281021l13.660492,-20.312134l25.327637,-0.031021l11.667358,20.28096l0,0z" id="svg_1"/>
   <path fill="url(#linearGradient859)" fill-rule="evenodd" stroke-width="1.0000000pt" d="m125.347137,40.965637c0,0 -13.441269,18.541809 -12.727539,19.292572c0.713776,0.750793 9.667694,17.733841 11.113953,18.952484c0.571014,0.600616 22.065216,1.120087 23.518433,-0.074707c-17.357025,-7.66629 -34.700256,-20.159561 -21.904846,-38.170349l0,0z" id="svg_24"/>
   <path fill="#ffc62a" fill-rule="evenodd" stroke="#ff9500" stroke-width="2.5" d="m77.611328,183.229126l-13.660385,20.312073l-25.32782,0.031128l-11.667297,-20.281006l13.660492,-20.312134l25.327606,-0.031006l11.667404,20.280945l0,0z" id="svg_27"/>
   <path fill="#ffc62a" fill-rule="evenodd" stroke="#ff9500" stroke-width="2.5" d="m80.384109,141.972168l-13.660385,20.312073l-25.32782,0.031128l-11.667297,-20.281006l13.660492,-20.312134l25.327621,-0.031006l11.667389,20.280945l0,0z" id="svg_28"/>
   <path fill="#ffc62a" fill-rule="evenodd" stroke="#ff9500" stroke-width="2.5" d="m81.96846,100.71524l-13.660385,20.312073l-25.32782,0.031128l-11.667297,-20.281006l13.660492,-20.312134l25.327621,-0.031021l11.667389,20.28096l0,0z" id="svg_29"/>
   <path fill="#ffc62a" fill-rule="evenodd" stroke="#ff9500" stroke-width="2.5" d="m152.476501,224.670746l-13.6604,20.312042l-25.32782,0.031158l-11.667297,-20.281036l13.660492,-20.312134l25.327637,-0.031006l11.667389,20.280975l0,0z" id="svg_30"/>
   <path fill="#ffc62a" fill-rule="evenodd" stroke="#ff9500" stroke-width="2.5" d="m192.087738,203.857971l-13.66037,20.312073l-25.32782,0.031128l-11.667297,-20.281036l13.660492,-20.312103l25.327606,-0.031036l11.667389,20.280975l0,0z" id="svg_31"/>
   <path fill="#ffc62a" fill-rule="evenodd" stroke="#ff9500" stroke-width="2.5" d="m115.043823,203.858063l-13.660385,20.312073l-25.32782,0.031128l-11.667297,-20.281006l13.660492,-20.312134l25.327621,-0.031036l11.667389,20.280975l0,0z" id="svg_32"/>
   <path fill="url(#linearGradient859)" fill-rule="evenodd" stroke-width="1.0000000pt" d="m45.134293,82.038376c0,0 -13.441284,18.541809 -12.727539,19.292572c0.713776,0.750793 9.667694,17.733841 11.113937,18.952499c0.571014,0.600616 22.065231,1.120087 23.518417,-0.074707c-17.357025,-7.66629 -34.700226,-20.159561 -21.9048,-38.170364l-0.000015,0z" id="svg_33"/>
   <path fill="url(#linearGradient859)" fill-rule="evenodd" stroke-width="1.0000000pt" d="m115.444336,206.177643c0,0 -13.441284,18.541809 -12.727539,19.292572c0.713776,0.750763 9.667694,17.733826 11.113922,18.952484c0.571014,0.600647 22.065247,1.120087 23.518433,-0.074707c-17.357025,-7.66629 -34.700226,-20.159546 -21.904816,-38.170349l0,0z" id="svg_34"/>
   <path fill="url(#linearGradient859)" fill-rule="evenodd" stroke-width="1.0000000pt" d="m154.659515,185.180786c0,0 -13.441284,18.541809 -12.727539,19.292572c0.713776,0.750793 9.667694,17.733856 11.113922,18.952515c0.571014,0.600616 22.065247,1.120056 23.518433,-0.074707c-17.357025,-7.666321 -34.700226,-20.159576 -21.904816,-38.17038l0,0z" id="svg_35"/>
   <path fill="url(#linearGradient859)" fill-rule="evenodd" stroke-width="1.0000000pt" d="m78.011673,184.812408c0,0 -13.441299,18.54184 -12.727539,19.292603c0.71376,0.750763 9.667694,17.733826 11.113922,18.952484c0.571014,0.600616 22.065231,1.120056 23.518433,-0.074707c-17.357025,-7.66629 -34.700241,-20.159576 -21.904816,-38.170349l0,-0.000031z" id="svg_36"/>
   <path fill="url(#linearGradient859)" fill-rule="evenodd" stroke-width="1.0000000pt" d="m40.777054,164.183929c0,0 -13.441284,18.541809 -12.727539,19.292603c0.713776,0.750763 9.667694,17.733826 11.113922,18.952484c0.57103,0.600616 22.065231,1.120056 23.518433,-0.074738c-17.357025,-7.66626 -34.700241,-20.159546 -21.904816,-38.170349l0,0z" id="svg_37"/>
   <path fill="url(#linearGradient859)" fill-rule="evenodd" stroke-width="1.0000000pt" d="m43.747894,123.479523c0,0 -13.441284,18.541809 -12.727539,19.292572c0.713791,0.750793 9.667694,17.733856 11.113937,18.952515c0.571014,0.600616 22.065231,1.120056 23.518433,-0.074738c-17.357025,-7.66626 -34.700241,-20.159546 -21.904816,-38.170349l-0.000015,0z" id="svg_38"/>
  </g>
 </g>
</svg>
