<?xml version="1.0" encoding="utf-8"?>
<!-- Generator: Adobe Illustrator 16.0.4, SVG Export Plug-In . SVG Version: 6.00 Build 0)  -->
<!DOCTYPE svg PUBLIC "-//W3C//DTD SVG 1.1//EN" "http://www.w3.org/Graphics/SVG/1.1/DTD/svg11.dtd">
<svg version="1.1"
	 id="svg3051" sodipodi:docname="Documento nuevo 3" inkscape:version="0.47 r22583" xmlns:cc="http://creativecommons.org/ns#" xmlns:dc="http://purl.org/dc/elements/1.1/" xmlns:rdf="http://www.w3.org/1999/02/22-rdf-syntax-ns#" xmlns:svg="http://www.w3.org/2000/svg" xmlns:sodipodi="http://sodipodi.sourceforge.net/DTD/sodipodi-0.dtd" xmlns:inkscape="http://www.inkscape.org/namespaces/inkscape"
	 xmlns="http://www.w3.org/2000/svg" xmlns:xlink="http://www.w3.org/1999/xlink" x="0px" y="0px" width="339.504px" height="256px"
	 viewBox="0 0 339.504 256" enable-background="new 0 0 339.504 256" xml:space="preserve">
<defs>
	
	
		<inkscape:perspective  id="perspective3059" inkscape:persp3d-origin="372.04724 : 350.78739 : 1" inkscape:vp_x="0 : 526.18109 : 1" sodipodi:type="inkscape:persp3d" inkscape:vp_y="0 : 1000 : 0" inkscape:vp_z="744.09448 : 526.18109 : 1">
		</inkscape:perspective>
	
		<inkscape:perspective  id="perspective2907" inkscape:persp3d-origin="0.5 : 0.33333333 : 1" inkscape:vp_x="0 : 0.5 : 1" sodipodi:type="inkscape:persp3d" inkscape:vp_y="0 : 1000 : 0" inkscape:vp_z="1 : 0.5 : 1">
		</inkscape:perspective>
</defs>
<sodipodi:namedview  id="base" inkscape:pageopacity="0.0" inkscape:window-height="595" inkscape:current-layer="layer1" inkscape:window-maximized="0" inkscape:window-width="1036" inkscape:document-units="px" inkscape:pageshadow="2" inkscape:window-x="1534" inkscape:window-y="21" inkscape:cy="127.99996" pagecolor="#ffffff" bordercolor="#666666" borderopacity="1.0" inkscape:zoom="1.3906254" inkscape:cx="169.752" showgrid="false">
	</sodipodi:namedview>
<g id="layer1" transform="translate(-180.248,-404.36223)" inkscape:label="Capa 1" inkscape:groupmode="layer">
	<g id="g10" transform="matrix(0.05657457,0,0,0.05657457,64.27013,246.74548)">
		<g id="g12">
			<g id="g14">
				<path id="path16" fill="#999999" stroke="#DDDDDD" stroke-miterlimit="10" d="M2769.482,3795.744
					c-7.241-570.308,598.288-994.333,1107.292-899.611c161.109,25.806,317.532,110.041,439.043,215.862
					c176.86-225.028,447.173-331.807,719.092-281.206c179.812,41.781,357.206,151.771,468.802,310.86
					c138.574-202.01,369.911-293.133,593.031-251.61c188.235,35.032,341.982,161.394,423.819,325.368
					c153.021-124.429,357.086-180.062,553.348-143.537c317.747,59.121,544.458,341.585,540.626,677.88
					c290.958,147.749,459.291,483.828,396.425,821.625c-19.073,102.55-53.579,199.101-117.964,284.89
					c99.806,189.159,141.733,407.049,103.016,615.17c-87.739,471.512-513.422,804.156-977.201,787.55
					c-84.011,451.42-498.474,740.41-933.806,659.402c-149.38-27.791-283.812-97.509-393.128-202.13
					c-188.478,375.797-602.215,589.01-1007.616,513.577c-302.834-56.358-556.662-276.268-679.779-572.715
					c-179.268,71.704-105.648,146.773-565.819,61.123c-378.55-70.426-687.443-343.191-806.883-714.949
					c-433.779-89.017-607.126-397.961-544.269-735.749c29.18-156.837,112.311-288.006,237.801-386.344
					c-169.921-133.585-236.049-348.697-194.329-572.896C2189.724,3992.618,2466.096,3775.703,2769.482,3795.744L2769.482,3795.744z
					 M2518.777,2224.25L2518.777,2224.25z M7568.914,7766.629L7568.914,7766.629z"/>
			</g>
			<g id="g18">
				<path id="path20" fill="none" stroke="#DDDDDD" stroke-width="5" stroke-linejoin="round" d="M2769.482,3795.744
					c-7.241-570.308,598.288-994.333,1107.292-899.611c161.109,25.806,317.532,110.041,439.043,215.862
					c176.86-225.028,447.173-331.807,719.092-281.206c179.812,41.781,357.206,151.771,468.802,310.86
					c138.574-202.01,369.911-293.133,593.031-251.61c188.235,35.032,341.982,161.394,423.819,325.368
					c153.021-124.429,357.086-180.062,553.348-143.537c317.747,59.121,544.458,341.585,540.626,677.88
					c290.958,147.749,459.291,483.828,396.425,821.625c-19.073,102.55-53.579,199.101-117.964,284.89
					c99.806,189.159,141.733,407.049,103.016,615.17c-87.739,471.512-513.422,804.156-977.201,787.55
					c-84.011,451.42-498.474,740.41-933.806,659.402c-149.38-27.791-283.812-97.509-393.128-202.13
					c-188.478,375.797-602.215,589.01-1007.616,513.577c-302.834-56.358-556.662-276.268-679.779-572.715
					c-179.268,71.704-105.648,146.773-565.819,61.123c-378.55-70.426-687.443-343.191-806.883-714.949
					c-433.779-89.017-607.126-397.961-544.269-735.749c29.18-156.837,112.311-288.006,237.801-386.344
					c-169.921-133.585-236.049-348.697-194.329-572.896C2189.724,3992.618,2466.096,3775.703,2769.482,3795.744L2769.482,3795.744"
					/>
				<path id="path22" fill="none" stroke="#DDDDDD" stroke-width="5" stroke-linejoin="round" d="M2769.482,3795.744
					c-4.764,53.199,9.485,115.142,13.628,164.803"/>
				<path id="path24" fill="none" stroke="#DDDDDD" stroke-width="5" stroke-linejoin="round" d="M2518.777,2224.25
					L2518.777,2224.25"/>
				<path id="path26" fill="none" stroke="#DDDDDD" stroke-width="5" stroke-linejoin="round" d="M7568.914,7766.629
					L7568.914,7766.629"/>
				<path id="path28" fill="none" stroke="#DDDDDD" stroke-width="5" stroke-linejoin="round" d="M4315.816,3111.995
					c55.452,50.886,121.244,118.266,162.93,182.194"/>
				<path id="path30" fill="none" stroke="#DDDDDD" stroke-width="5" stroke-linejoin="round" d="M2518.777,2224.25
					L2518.777,2224.25"/>
				<path id="path32" fill="none" stroke="#DDDDDD" stroke-width="5" stroke-linejoin="round" d="M7568.914,7766.629
					L7568.914,7766.629"/>
				<path id="path34" fill="none" stroke="#DDDDDD" stroke-width="5" stroke-linejoin="round" d="M5503.71,3141.649
					c-29.983,39.149-53.425,87.843-75.588,134.682"/>
				<path id="path36" fill="none" stroke="#DDDDDD" stroke-width="5" stroke-linejoin="round" d="M2518.777,2224.25
					L2518.777,2224.25"/>
				<path id="path38" fill="none" stroke="#DDDDDD" stroke-width="5" stroke-linejoin="round" d="M7568.914,7766.629
					L7568.914,7766.629"/>
				<path id="path40" fill="none" stroke="#DDDDDD" stroke-width="5" stroke-linejoin="round" d="M6520.561,3215.407
					c-50.024,41.661-84.271,103.939-122.193,158.252"/>
				<path id="path42" fill="none" stroke="#DDDDDD" stroke-width="5" stroke-linejoin="round" d="M2518.777,2224.25
					L2518.777,2224.25"/>
				<path id="path44" fill="none" stroke="#DDDDDD" stroke-width="5" stroke-linejoin="round" d="M7568.914,7766.629
					L7568.914,7766.629"/>
				<path id="path46" fill="none" stroke="#DDDDDD" stroke-width="5" stroke-linejoin="round" d="M7614.535,3749.75
					c-0.967,38.294,10.789,124.748-3.693,141.819"/>
				<path id="path48" fill="none" stroke="#DDDDDD" stroke-width="5" stroke-linejoin="round" d="M2518.777,2224.25
					L2518.777,2224.25"/>
				<path id="path50" fill="none" stroke="#DDDDDD" stroke-width="5" stroke-linejoin="round" d="M7568.914,7766.629
					L7568.914,7766.629"/>
				<path id="path52" fill="none" stroke="#DDDDDD" stroke-width="5" stroke-linejoin="round" d="M7892.996,4856.265
					c-65.266,96.025-145.237,176.834-247.114,236.921"/>
				<path id="path54" fill="none" stroke="#DDDDDD" stroke-width="5" stroke-linejoin="round" d="M2518.777,2224.25
					L2518.777,2224.25"/>
				<path id="path56" fill="none" stroke="#DDDDDD" stroke-width="5" stroke-linejoin="round" d="M7568.914,7766.629
					L7568.914,7766.629"/>
				<path id="path58" fill="none" stroke="#DDDDDD" stroke-width="5" stroke-linejoin="round" d="M7020.813,6259.365
					c52.75-161.773,3.952-597.313-314.917-816.826"/>
				<path id="path60" fill="none" stroke="#DDDDDD" stroke-width="5" stroke-linejoin="round" d="M2518.777,2224.25
					L2518.777,2224.25"/>
				<path id="path62" fill="none" stroke="#DDDDDD" stroke-width="5" stroke-linejoin="round" d="M7568.914,7766.629
					L7568.914,7766.629"/>
				<path id="path64" fill="none" stroke="#DDDDDD" stroke-width="5" stroke-linejoin="round" d="M5691.876,6716.257
					c34.592-64.247,54.218-125.094,71.307-189.564"/>
				<path id="path66" fill="none" stroke="#DDDDDD" stroke-width="5" stroke-linejoin="round" d="M2518.777,2224.25
					L2518.777,2224.25"/>
				<path id="path68" fill="none" stroke="#DDDDDD" stroke-width="5" stroke-linejoin="round" d="M7568.914,7766.629
					L7568.914,7766.629"/>
				<path id="path70" fill="none" stroke="#DDDDDD" stroke-width="5" stroke-linejoin="round" d="M4007.477,6657.671
					c-33.936-61.451-49.402-127.769-64.325-197.108"/>
				<path id="path72" fill="none" stroke="#DDDDDD" stroke-width="5" stroke-linejoin="round" d="M2518.777,2224.25
					L2518.777,2224.25"/>
				<path id="path74" fill="none" stroke="#DDDDDD" stroke-width="5" stroke-linejoin="round" d="M7568.914,7766.629
					L7568.914,7766.629"/>
				<path id="path76" fill="none" stroke="#DDDDDD" stroke-width="5" stroke-linejoin="round" d="M2631.779,6003.292
					c53.312,1.623,107.348-0.794,159.702-10.84"/>
				<path id="path78" fill="none" stroke="#DDDDDD" stroke-width="5" stroke-linejoin="round" d="M2518.777,2224.25
					L2518.777,2224.25"/>
				<path id="path80" fill="none" stroke="#DDDDDD" stroke-width="5" stroke-linejoin="round" d="M7568.914,7766.629
					L7568.914,7766.629"/>
				<path id="path82" fill="none" stroke="#DDDDDD" stroke-width="5" stroke-linejoin="round" d="M2325.312,4881.199
					c79.73,69.943,174.539,136.469,327.302,146.169"/>
				<path id="path84" fill="none" stroke="#DDDDDD" stroke-width="5" stroke-linejoin="round" d="M2518.777,2224.25
					L2518.777,2224.25"/>
				<path id="path86" fill="none" stroke="#DDDDDD" stroke-width="5" stroke-linejoin="round" d="M7568.914,7766.629
					L7568.914,7766.629"/>
			</g>
			<g id="g88">
			</g>
		</g>
	</g>
</g>
</svg>
